#define demo_maker_a_width 8
#define demo_maker_a_height 728
static unsigned char demo_maker_a_bits[] = {
 0x00, 0x00, 0x00, 0x00, 0x00, 0x00, 0x00, 0x00, 0x0C, 0x0C, 0x0C, 0x1C,
 0x1C, 0x00, 0x1C, 0x00, 0x77, 0x77, 0x77, 0x00, 0x00, 0x00, 0x00, 0x00,
 0x66, 0x66, 0xFF, 0x66, 0xFF, 0x66, 0x66, 0x00, 0x18, 0x7F, 0x03, 0x7F,
 0x70, 0x7F, 0x1C, 0x00, 0x47, 0x67, 0x30, 0x18, 0x0C, 0x76, 0x72, 0x00,
 0x7E, 0x66, 0x7E, 0x3C, 0xE6, 0x66, 0xFE, 0x00, 0x38, 0x38, 0x1C, 0x00,
 0x00, 0x00, 0x00, 0x00, 0x30, 0x18, 0x0C, 0x0C, 0x1C, 0x38, 0x70, 0x00,
 0x0C, 0x18, 0x30, 0x30, 0x38, 0x1C, 0x0E, 0x00, 0x08, 0x2A, 0x1C, 0x7F,
 0x1C, 0x2A, 0x08, 0x00, 0x00, 0x0C, 0x0C, 0x3F, 0x0C, 0x0C, 0x00, 0x00,
 0x00, 0x00, 0x00, 0x00, 0x00, 0x1C, 0x1C, 0x0E, 0x00, 0x00, 0x00, 0x7F,
 0x0F, 0x00, 0x00, 0x00, 0x00, 0x00, 0x00, 0x00, 0x00, 0x1C, 0x1C, 0x00,
 0x40, 0x60, 0x30, 0x18, 0x1C, 0x0E, 0x06, 0x00, 0x7F, 0x63, 0x73, 0x6B,
 0x67, 0x67, 0x7F, 0x00, 0x18, 0x1C, 0x18, 0x18, 0x38, 0x38, 0x7E, 0x00,
 0x7F, 0x60, 0x60, 0x7F, 0x07, 0x07, 0x7F, 0x00, 0x7F, 0x60, 0x60, 0x7C,
 0x70, 0x70, 0x7F, 0x00, 0x63, 0x63, 0x63, 0x7F, 0x70, 0x70, 0x70, 0x00,
 0x7F, 0x03, 0x03, 0x7F, 0x70, 0x70, 0x7F, 0x00, 0x7F, 0x03, 0x03, 0x7F,
 0x67, 0x67, 0x7F, 0x00, 0x7F, 0x60, 0x30, 0x18, 0x38, 0x38, 0x38, 0x00,
 0x7E, 0x66, 0x66, 0x7F, 0x67, 0x67, 0x7F, 0x00, 0x7F, 0x63, 0x63, 0x7F,
 0x70, 0x70, 0x7F, 0x00, 0x00, 0x0E, 0x0E, 0x00, 0x0E, 0x0E, 0x00, 0x00,
 0x00, 0x0E, 0x0E, 0x00, 0x0E, 0x0E, 0x07, 0x00, 0x30, 0x18, 0x0C, 0x0E,
 0x1C, 0x38, 0x70, 0x00, 0x00, 0x00, 0x7F, 0x00, 0x7F, 0x00, 0x00, 0x00,
 0x0C, 0x18, 0x30, 0x70, 0x38, 0x1C, 0x0E, 0x00, 0x7F, 0x63, 0x60, 0x38,
 0x1C, 0x00, 0x1C, 0x00, 0x3C, 0x66, 0x76, 0x76, 0x06, 0x46, 0x3C, 0x00,
 0x7F, 0x63, 0x63, 0x7F, 0x67, 0x67, 0x67, 0x00, 0x3F, 0x33, 0x33, 0x7F,
 0x67, 0x67, 0x7F, 0x00, 0x7F, 0x03, 0x03, 0x03, 0x07, 0x07, 0x7F, 0x00,
 0x1F, 0x63, 0x63, 0x63, 0x67, 0x67, 0x1F, 0x00, 0x7F, 0x03, 0x03, 0x1F,
 0x07, 0x07, 0x7F, 0x00, 0x7F, 0x03, 0x03, 0x1F, 0x07, 0x07, 0x07, 0x00,
 0x7F, 0x03, 0x03, 0x73, 0x67, 0x67, 0x7F, 0x00, 0x63, 0x63, 0x63, 0x7F,
 0x67, 0x67, 0x67, 0x00, 0x1E, 0x0C, 0x0C, 0x0C, 0x1C, 0x1C, 0x3E, 0x00,
 0x78, 0x30, 0x30, 0x30, 0x73, 0x73, 0x7F, 0x00, 0x63, 0x63, 0x33, 0x1F,
 0x33, 0x67, 0x67, 0x00, 0x03, 0x03, 0x03, 0x07, 0x07, 0x07, 0x7F, 0x00,
 0x7F, 0x6B, 0x6B, 0x63, 0x67, 0x67, 0x67, 0x00, 0x67, 0x6F, 0x7B, 0x73,
 0x67, 0x67, 0x67, 0x00, 0x7F, 0x63, 0x63, 0x63, 0x67, 0x67, 0x7F, 0x00,
 0x7F, 0x63, 0x63, 0x7F, 0x07, 0x07, 0x07, 0x00, 0x7F, 0x63, 0x63, 0x67,
 0x67, 0x7F, 0x70, 0x00, 0x7F, 0x63, 0x63, 0x7F, 0x1F, 0x37, 0x67, 0x00,
 0x7F, 0x63, 0x03, 0x7F, 0x70, 0x73, 0x7F, 0x00, 0x7F, 0x0C, 0x0C, 0x0C,
 0x1C, 0x1C, 0x1C, 0x00, 0x63, 0x63, 0x63, 0x63, 0x67, 0x67, 0x7F, 0x00,
 0x63, 0x63, 0x63, 0x67, 0x67, 0x3E, 0x1C, 0x00, 0x67, 0x67, 0x63, 0x6B,
 0x6B, 0x6B, 0x7F, 0x00, 0x63, 0x63, 0x63, 0x1C, 0x67, 0x67, 0x67, 0x00,
 0x63, 0x63, 0x67, 0x67, 0x1C, 0x1C, 0x1C, 0x00, 0x7F, 0x60, 0x30, 0x18,
 0x0E, 0x07, 0x7F, 0x00, 0x3C, 0x0C, 0x0C, 0x0C, 0x0C, 0x0C, 0x3C, 0x00,
 0x30, 0x48, 0x0C, 0x3E, 0x0C, 0x46, 0x3F, 0x00, 0x3C, 0x30, 0x30, 0x30,
 0x30, 0x30, 0x3C, 0x00, 0x00, 0x0C, 0x1E, 0x3F, 0x0C, 0x0C, 0x0C, 0x0C,
 0x00, 0x04, 0x06, 0x7F, 0x7F, 0x06, 0x04, 0x00, 0x00, 0x00, 0x00, 0xFF,
 0xFF, 0x00, 0x00, 0x00, 0x00, 0x00, 0x7F, 0x60, 0x7F, 0x67, 0x7F, 0x00,
 0x03, 0x03, 0x7F, 0x63, 0x67, 0x67, 0x7F, 0x00, 0x00, 0x00, 0x7F, 0x03,
 0x07, 0x07, 0x7F, 0x00, 0x60, 0x60, 0x7F, 0x63, 0x67, 0x67, 0x7F, 0x00,
 0x00, 0x00, 0x7F, 0x63, 0x7F, 0x07, 0x7F, 0x00, 0x7C, 0x0C, 0x0C, 0x3F,
 0x1C, 0x1C, 0x1C, 0x00, 0x00, 0x00, 0x7F, 0x63, 0x73, 0x7F, 0x70, 0x7F,
 0x03, 0x03, 0x7F, 0x63, 0x67, 0x67, 0x67, 0x00, 0x00, 0x0C, 0x00, 0x0C,
 0x1C, 0x1C, 0x1C, 0x00, 0x00, 0x30, 0x00, 0x30, 0x30, 0x70, 0x73, 0x7F,
 0x03, 0x03, 0x63, 0x1F, 0x1F, 0x67, 0x67, 0x00, 0x0C, 0x0C, 0x0C, 0x0C,
 0x1C, 0x1C, 0x1C, 0x00, 0x00, 0x00, 0x7F, 0x6B, 0x6B, 0x67, 0x67, 0x00,
 0x00, 0x00, 0x7F, 0x63, 0x67, 0x67, 0x67, 0x00, 0x00, 0x00, 0x7F, 0x63,
 0x67, 0x67, 0x7F, 0x00, 0x00, 0x00, 0x7F, 0x63, 0x67, 0x7F, 0x07, 0x07,
 0x00, 0x00, 0x7F, 0x63, 0x73, 0x7F, 0x70, 0x70, 0x00, 0x00, 0x7F, 0x63,
 0x07, 0x07, 0x07, 0x00, 0x00, 0x00, 0x7F, 0x03, 0x7F, 0x70, 0x7F, 0x00,
 0x0C, 0x0C, 0x3F, 0x1C, 0x1C, 0x1C, 0x7C, 0x00, 0x00, 0x00, 0x63, 0x63,
 0x67, 0x67, 0x7F, 0x00, 0x00, 0x00, 0x63, 0x63, 0x67, 0x37, 0x1E, 0x00,
 0x00, 0x00, 0x67, 0x67, 0x6B, 0x6B, 0x7F, 0x00, 0x00, 0x00, 0x63, 0x63,
 0x1C, 0x67, 0x67, 0x00, 0x00, 0x00, 0x63, 0x67, 0x67, 0x7F, 0x60, 0x7F,
 0x00, 0x00, 0x7F, 0x30, 0x1C, 0x0E, 0x7F, 0x00 };
