/* XPM */
static char *font2_8x8[] = {
/* columns rows colors chars-per-pixel */
"8 768 2 1 ",
"# c black",
". c white",
/* pixels */
"........",
"........",
"........",
"........",
"........",
"........",
"........",
"........",
"........",
".######.",
".#####..",
".####...",
".###....",
"........",
".###....",
"........",
"........",
".##.##..",
".##.##..",
"........",
"........",
"........",
"........",
"........",
"........",
"..#####.",
"..##.##.",
"..##....",
".####...",
"..##....",
"..#####.",
"........",
"...##...",
".######.",
".##.....",
".######.",
".....##.",
".##..##.",
".######.",
"...##...",
"........",
".##...#.",
".##..#..",
"....#...",
"...#....",
"..#..##.",
".#...##.",
"........",
"........",
"..##....",
".##.#...",
".###.##.",
"##.###..",
"##..##..",
".###.##.",
"........",
"........",
"...##...",
"...##...",
"..##....",
"........",
"........",
"........",
"........",
"........",
"....###.",
"...###..",
"..###...",
"..###...",
"..###...",
"...###..",
"....###.",
"........",
".###....",
"..###...",
"...###..",
"...###..",
"...###..",
"..###...",
".###....",
"........",
".#....#.",
"..####..",
".######.",
"..####..",
".#....#.",
"........",
"........",
"........",
"...##...",
"...##...",
".######.",
"...##...",
"...##...",
"........",
"........",
"........",
"........",
"........",
"........",
"........",
"...##...",
"...##...",
"..##....",
"........",
"........",
"........",
".######.",
"........",
"........",
"........",
"........",
"........",
"........",
"........",
"........",
"........",
"...##...",
"...##...",
"........",
"......##",
".....##.",
"....##..",
"...##...",
"..##....",
".##.....",
"##......",
"#.......",
"........",
".######.",
".##..##.",
".##.###.",
".###.##.",
".##..##.",
".######.",
"........",
"........",
"..###...",
"..###...",
"...##...",
"...##...",
"...##...",
"...##...",
"........",
"........",
".######.",
".....##.",
".######.",
".##.....",
".##..##.",
".######.",
"........",
"........",
".######.",
".....##.",
"...####.",
".....##.",
".##..##.",
".######.",
"........",
".##.....",
".##.##..",
".##.##..",
".######.",
"....##..",
"....##..",
"....##..",
"........",
"........",
".######.",
".#......",
".######.",
".....##.",
".##..##.",
".######.",
"........",
"........",
".######.",
".##.....",
".######.",
".##..##.",
".##..##.",
".######.",
"........",
"........",
".######.",
".....##.",
".....##.",
"....####",
".....##.",
".....##.",
".....##.",
"........",
".######.",
".##..##.",
"..####..",
".##..##.",
".##..##.",
".######.",
"........",
"........",
".######.",
".##..##.",
".######.",
".....##.",
".....##.",
".....##.",
".....##.",
"........",
"...##...",
"...##...",
"........",
"........",
"...##...",
"...##...",
"........",
"........",
"...##...",
"...##...",
"........",
"........",
"...##...",
"...##...",
"..##....",
"........",
"....###.",
"...###..",
"..###...",
".###....",
"..###...",
"...###..",
"....###.",
"........",
"........",
".######.",
"........",
"........",
".######.",
"........",
"........",
"........",
".###....",
"..###...",
"...###..",
"....###.",
"...###..",
"..###...",
".###....",
"........",
".######.",
".##..##.",
".....##.",
"...####.",
"...##...",
"........",
"...##...",
"........",
"..##.##.",
"........",
"........",
"........",
"........",
"........",
"........",
"........",
".######.",
".##..##.",
".######.",
".##..##.",
".##..##.",
".....##.",
".....##.",
"........",
"#######.",
".##..##.",
".#####..",
".##..##.",
".##..##.",
".######.",
"........",
"........",
".######.",
".##..##.",
".##.....",
".##.....",
".##..##.",
".######.",
"........",
"........",
".#####..",
".##..##.",
".##..##.",
".##..##.",
".##..##.",
".#####..",
"........",
"........",
".######.",
".##.....",
".####...",
".##.....",
".##..##.",
".######.",
"........",
"........",
".######.",
".##.....",
".####...",
".##.....",
".##.....",
".##.....",
".##.....",
"........",
".######.",
".##.....",
".##.###.",
".##..##.",
".##..##.",
".######.",
"........",
"........",
".##..##.",
".##..##.",
".######.",
".##..##.",
".##..##.",
".##..##.",
".....##.",
"........",
".######.",
"...##...",
"...##...",
"...##...",
"...##...",
".######.",
"........",
"........",
".######.",
".....##.",
".....##.",
".##..##.",
".##..##.",
"..####..",
"........",
".....##.",
".##..##.",
".##.##..",
".####...",
".##.##..",
".##..##.",
".##..##.",
".##.....",
"........",
".##.....",
".##.....",
".##.....",
".##.....",
".##.....",
".######.",
"........",
"........",
"#.....#.",
"##...##.",
"###.###.",
"#######.",
"##.#.##.",
"##...##.",
"##......",
".....##.",
"##...##.",
"###..##.",
"####.##.",
"##.####.",
"##..###.",
"##...##.",
"##......",
"........",
".######.",
".##..##.",
".##..##.",
".##..##.",
".##..##.",
".######.",
"........",
"........",
".######.",
".##..##.",
".######.",
".##.....",
".##.....",
".##.....",
".##.....",
"........",
"#######.",
"##...##.",
"##...##.",
"##...##.",
"##.##.#.",
"###.##..",
".....##.",
"........",
".######.",
".##..##.",
".#####..",
".##..##.",
".##..##.",
".##..##.",
".##.....",
"........",
".######.",
".##.....",
".######.",
".....##.",
".##..##.",
".######.",
"........",
"........",
".######.",
"...##...",
"...##...",
"...##...",
"...##...",
"...##...",
"........",
".....##.",
".##..##.",
".##..##.",
".##..##.",
".##..##.",
".##..##.",
".######.",
"........",
"........",
".##..##.",
".##..##.",
".##..##.",
".##..##.",
"..####..",
"...##...",
"........",
".....##.",
"##...##.",
"##...##.",
"##.#.##.",
"#######.",
"###.###.",
"##...##.",
"........",
"........",
".##..##.",
"..####..",
"...##...",
"..####..",
".##..##.",
".##..##.",
"........",
".....##.",
".##..##.",
".##..##.",
".##..##.",
"..####..",
"...##...",
"...##...",
"...##...",
"........",
"#######.",
"....##..",
"...##...",
"..##....",
".##..##.",
"#######.",
"........",
"........",
"..#####.",
"..###...",
"..###...",
"..###...",
"..###...",
"..###...",
"..#####.",
"##......",
".##.....",
"..##....",
"...##...",
"....##..",
".....##.",
"......##",
".......#",
"........",
".#####..",
"...###..",
"...###..",
"...###..",
"...###..",
"...###..",
".#####..",
"...##...",
"..####..",
".##..##.",
"........",
"........",
"........",
"........",
"........",
"........",
"........",
"........",
"........",
"........",
"........",
"........",
"########",
"........",
"...##...",
"...##...",
"....##..",
"........",
"........",
"........",
"........",
"........",
"........",
"#######.",
".....##.",
".######.",
".##..##.",
".######.",
"........",
".##.....",
".##.....",
".######.",
".##..##.",
".##..##.",
".##..##.",
".######.",
"........",
"........",
"........",
".######.",
".##..##.",
".##.....",
".##..##.",
".######.",
"........",
".....##.",
".....##.",
".######.",
".##..##.",
".##..##.",
".##..##.",
".######.",
"........",
"........",
"........",
".######.",
".##..##.",
".######.",
".##.....",
".######.",
"........",
"..#####.",
"..##.##.",
"..##....",
"..####..",
"..##....",
"..##....",
"..##....",
"..##....",
"........",
"........",
".######.",
".##..##.",
".##..##.",
".######.",
".....##.",
".######.",
".##.....",
".##.....",
".######.",
".##..##.",
".##..##.",
".##..##.",
".##..##.",
"........",
"...##...",
"........",
"...##...",
"...##...",
"...##...",
"...##...",
"...##...",
"...##...",
".....##.",
"........",
".....##.",
".....##.",
".....##.",
".##..##.",
".##..##.",
".######.",
".##.....",
".##.....",
".##..##.",
".##.##..",
".####...",
".##.##..",
".##..##.",
"......##",
"...##...",
"...##...",
"...##...",
"...##...",
"...##...",
"...##...",
"...##...",
"...##...",
"........",
"........",
".#######",
".##.#.##",
".##.#.##",
".##.#.##",
".##...##",
".##.....",
"........",
"........",
".######.",
".##..##.",
".##..##.",
".##..##.",
".##..##.",
".....##.",
"........",
"........",
".######.",
".##..##.",
".##..##.",
".##..##.",
".######.",
"........",
"........",
"........",
".######.",
".##..##.",
".##..##.",
".######.",
".##.....",
".##.....",
"........",
"........",
".######.",
".##..##.",
".##..##.",
".######.",
".....##.",
".....##.",
"........",
"........",
".######.",
".##..##.",
".##.....",
".##.....",
".##.....",
".##.....",
"........",
"........",
".######.",
".##.....",
".######.",
".....##.",
".######.",
"........",
"...##...",
"...##...",
"..####..",
"...##...",
"...##...",
"...##...",
"...##...",
"...##...",
"........",
".....##.",
".##..##.",
".##..##.",
".##..##.",
".##..##.",
".######.",
"........",
"........",
"........",
".##..##.",
".##..##.",
".##..##.",
"..####..",
"...##...",
"........",
"........",
"......##",
".##...##",
".##.#.##",
".##.#.##",
".##.#.##",
".#######",
"........",
"........",
"........",
".##...##",
"..##.##.",
"...###..",
"..##.##.",
".##...##",
"........",
"........",
"........",
".##..##.",
".##..##.",
".##..##.",
".######.",
".....##.",
".######.",
"........",
"........",
".######.",
".#..##..",
"...##...",
"..##..#.",
".######.",
"........",
"########",
"..##..##",
"..##..##",
"..##..##",
"..##..##",
"..##..##",
"..##..##",
"########",
"...##...",
"...##...",
"...##...",
"...##...",
"...##...",
"...##...",
"...##...",
"...##...",
".######.",
"########",
"#..##..#",
"########",
"###..###",
"#.####.#",
"##....##",
".######.",
".##..##.",
"........",
"........",
"........",
"........",
"........",
"........",
"........",
"########",
"#######.",
"######..",
"#####...",
"####....",
"###.....",
"##......",
"#......."
};
/* Ripped from a SXI intro. */
